<?xml version="1.0" encoding="utf-8"?>
<!-- Generator: Adobe Illustrator 24.1.3, SVG Export Plug-In . SVG Version: 6.00 Build 0)  -->
<svg version="1.1" id="레이어_1" xmlns="http://www.w3.org/2000/svg" xmlns:xlink="http://www.w3.org/1999/xlink" x="0px"
	 y="0px" viewBox="0 0 257 42" style="enable-background:new 0 0 257 42;" xml:space="preserve">
<style type="text/css">
	.st0{fill:none;}
</style>
<g>
	<path d="M15.41,2.93c5.47,0,9.5,1.35,12.09,4.05c2.58,2.7,3.88,6.6,3.88,11.7v5.25c0,2.55-0.29,4.8-0.87,6.76s-1.5,3.6-2.78,4.92
		c-1.27,1.33-2.92,2.34-4.92,3.03c-2.01,0.7-4.44,1.05-7.29,1.05H2.61V2.93H15.41z M9.08,34.19h5.46c1.63,0,3.09-0.19,4.36-0.56
		c1.28-0.37,2.35-0.97,3.21-1.78c0.87-0.82,1.53-1.9,1.99-3.24c0.46-1.34,0.69-2.98,0.69-4.92v-4.74c0-3.88-0.86-6.6-2.58-8.16
		c-1.72-1.56-4.28-2.35-7.68-2.35H9.08V34.19z"/>
	<path d="M50.9,17.36c-0.48-0.2-0.99-0.36-1.53-0.46c-0.54-0.1-1.22-0.15-2.04-0.15c-0.88,0-1.71,0.15-2.47,0.46
		c-0.76,0.31-1.43,0.74-1.99,1.3c-0.56,0.56-1,1.22-1.33,1.99c-0.32,0.76-0.48,1.61-0.48,2.52V39.7h-6.43V11.6h6.17v4.08h0.1
		c0.75-1.43,1.74-2.57,2.98-3.42c1.24-0.85,2.86-1.28,4.87-1.28c0.71,0,1.43,0.05,2.14,0.15c0.71,0.1,1.33,0.24,1.84,0.41
		L50.9,17.36z"/>
	<path d="M76.45,37.1c-1.36,0.92-2.96,1.65-4.79,2.19c-1.84,0.54-4.08,0.82-6.73,0.82c-1.63,0-3.21-0.21-4.74-0.64
		c-1.53-0.43-2.9-1.14-4.11-2.14c-1.21-1-2.18-2.35-2.91-4.03c-0.73-1.68-1.1-3.78-1.1-6.3V24.1c0-2.28,0.33-4.24,0.99-5.89
		c0.66-1.65,1.57-3.01,2.73-4.08c1.16-1.07,2.51-1.86,4.05-2.37c1.55-0.51,3.22-0.77,5.02-0.77c1.77,0,3.41,0.26,4.92,0.77
		c1.51,0.51,2.81,1.28,3.9,2.32c1.09,1.04,1.94,2.33,2.55,3.88c0.61,1.55,0.92,3.34,0.92,5.38v4.64H58.35
		c0,2.24,0.59,3.94,1.78,5.07c1.19,1.14,2.91,1.71,5.15,1.71c1.67,0,3.14-0.18,4.44-0.54c1.29-0.36,2.65-0.94,4.08-1.76L76.45,37.1z
		 M71,23.13V21.9c0-0.75-0.11-1.46-0.33-2.14c-0.22-0.68-0.59-1.27-1.1-1.78c-0.51-0.51-1.16-0.92-1.94-1.22
		c-0.78-0.31-1.73-0.46-2.86-0.46c-2.14,0-3.75,0.56-4.82,1.68c-1.07,1.12-1.61,2.48-1.61,4.08v1.07H71z"/>
	<path d="M87.98,40.11c-3.03,0-5.37-0.69-7.04-2.07c-1.67-1.38-2.5-3.31-2.5-5.79v-1.63c0-1.16,0.18-2.22,0.54-3.19
		c0.36-0.97,0.95-1.81,1.78-2.53c0.83-0.71,1.93-1.27,3.29-1.68s3.03-0.61,5-0.61h6.43v-1.07c0-1.73-0.4-2.98-1.2-3.75
		c-0.8-0.76-2.07-1.15-3.8-1.15c-2.92,0-5.58,0.94-7.96,2.81l-3.16-4.69c1.43-0.99,3.04-1.86,4.85-2.63
		c1.8-0.77,3.91-1.15,6.32-1.15c1.63,0,3.14,0.2,4.54,0.61c1.39,0.41,2.59,0.99,3.6,1.76c1,0.77,1.78,1.7,2.35,2.81
		c0.56,1.1,0.84,2.37,0.84,3.8V39.7h-5.76l-0.1-3.47c-0.27,0.61-0.71,1.17-1.3,1.66c-0.6,0.49-1.27,0.9-2.01,1.22
		c-0.75,0.32-1.53,0.57-2.35,0.74C89.51,40.03,88.73,40.11,87.98,40.11z M95.48,27.62H89.2c-1.7,0-2.88,0.32-3.54,0.97
		c-0.66,0.65-0.99,1.51-0.99,2.6v0.61c0,0.92,0.32,1.63,0.97,2.14c0.65,0.51,1.6,0.77,2.86,0.77c2.62,0,4.56-0.63,5.81-1.89
		c0.58-0.58,0.92-1.2,1.02-1.86s0.15-1.52,0.15-2.58V27.62z"/>
	<path d="M135.82,10.99c1.29,0,2.53,0.22,3.7,0.66c1.17,0.44,2.2,1.11,3.09,1.99c0.88,0.88,1.59,1.99,2.12,3.31
		c0.53,1.33,0.79,2.87,0.79,4.64V39.7h-6.43V22.92c0-1.26-0.13-2.29-0.41-3.11c-0.27-0.82-0.65-1.45-1.12-1.91s-1.02-0.77-1.63-0.94
		c-0.61-0.17-1.26-0.25-1.94-0.25c-0.61,0-1.23,0.09-1.86,0.28c-0.63,0.19-1.18,0.51-1.66,0.97c-0.48,0.46-0.87,1.08-1.17,1.86
		c-0.31,0.78-0.46,1.75-0.46,2.91V39.7h-6.43V22.82c0-1.19-0.14-2.17-0.41-2.96c-0.27-0.78-0.64-1.41-1.1-1.89
		c-0.46-0.48-0.99-0.81-1.61-0.99c-0.61-0.19-1.27-0.28-1.99-0.28c-1.53,0-2.77,0.48-3.72,1.43c-0.95,0.95-1.43,2.4-1.43,4.34V39.7
		h-6.43V11.6h6.07v3.57h0.1c0.68-1.29,1.67-2.31,2.98-3.06c1.31-0.75,2.88-1.12,4.72-1.12c1.73,0,3.29,0.39,4.67,1.17
		c1.38,0.78,2.32,1.82,2.83,3.11c0.99-1.43,2.15-2.5,3.49-3.21C131.93,11.35,133.68,10.99,135.82,10.99z"/>
	<path d="M153.56,39.7l-6.99-28.1h6.88l4.13,21.78h0.2l5.1-21.78h6.07l4.84,21.78h0.2l4.49-21.78h6.43l-6.94,28.1h-7.5l-4.59-19.79
		h-0.2l-4.64,19.79H153.56z"/>
	<path d="M194.57,40.11c-3.03,0-5.37-0.69-7.04-2.07c-1.67-1.38-2.5-3.31-2.5-5.79v-1.63c0-1.16,0.18-2.22,0.54-3.19
		c0.36-0.97,0.95-1.81,1.79-2.53c0.83-0.71,1.93-1.27,3.29-1.68c1.36-0.41,3.03-0.61,5-0.61h6.43v-1.07c0-1.73-0.4-2.98-1.2-3.75
		c-0.8-0.76-2.07-1.15-3.8-1.15c-2.92,0-5.58,0.94-7.96,2.81l-3.16-4.69c1.43-0.99,3.04-1.86,4.84-2.63
		c1.8-0.77,3.91-1.15,6.32-1.15c1.63,0,3.14,0.2,4.54,0.61c1.39,0.41,2.59,0.99,3.59,1.76c1,0.77,1.79,1.7,2.35,2.81
		c0.56,1.1,0.84,2.37,0.84,3.8V39.7h-5.76l-0.1-3.47c-0.27,0.61-0.71,1.17-1.3,1.66c-0.6,0.49-1.27,0.9-2.01,1.22
		c-0.75,0.32-1.53,0.57-2.35,0.74C196.1,40.03,195.32,40.11,194.57,40.11z M202.06,27.62h-6.27c-1.7,0-2.88,0.32-3.54,0.97
		c-0.66,0.65-0.99,1.51-0.99,2.6v0.61c0,0.92,0.32,1.63,0.97,2.14c0.65,0.51,1.6,0.77,2.86,0.77c2.62,0,4.56-0.63,5.81-1.89
		c0.58-0.58,0.92-1.2,1.02-1.86c0.1-0.66,0.15-1.52,0.15-2.58V27.62z"/>
	<path d="M228.58,17.36c-0.48-0.2-0.99-0.36-1.53-0.46c-0.54-0.1-1.22-0.15-2.04-0.15c-0.88,0-1.71,0.15-2.47,0.46
		c-0.77,0.31-1.43,0.74-1.99,1.3c-0.56,0.56-1,1.22-1.33,1.99c-0.32,0.76-0.48,1.61-0.48,2.52V39.7h-6.43V11.6h6.17v4.08h0.1
		c0.75-1.43,1.74-2.57,2.98-3.42c1.24-0.85,2.86-1.28,4.87-1.28c0.71,0,1.43,0.05,2.14,0.15s1.33,0.24,1.84,0.41L228.58,17.36z"/>
	<path d="M254.14,37.1c-1.36,0.92-2.96,1.65-4.79,2.19c-1.84,0.54-4.08,0.82-6.73,0.82c-1.63,0-3.21-0.21-4.74-0.64
		c-1.53-0.43-2.9-1.14-4.11-2.14c-1.21-1-2.18-2.35-2.91-4.03c-0.73-1.68-1.1-3.78-1.1-6.3V24.1c0-2.28,0.33-4.24,1-5.89
		c0.66-1.65,1.57-3.01,2.73-4.08c1.16-1.07,2.51-1.86,4.05-2.37c1.55-0.51,3.22-0.77,5.02-0.77c1.77,0,3.41,0.26,4.92,0.77
		c1.51,0.51,2.81,1.28,3.9,2.32s1.94,2.33,2.55,3.88c0.61,1.55,0.92,3.34,0.92,5.38v4.64h-18.82c0,2.24,0.59,3.94,1.79,5.07
		c1.19,1.14,2.91,1.71,5.15,1.71c1.67,0,3.14-0.18,4.44-0.54c1.29-0.36,2.65-0.94,4.08-1.76L254.14,37.1z M248.68,23.13V21.9
		c0-0.75-0.11-1.46-0.33-2.14c-0.22-0.68-0.59-1.27-1.1-1.78c-0.51-0.51-1.16-0.92-1.94-1.22c-0.78-0.31-1.73-0.46-2.86-0.46
		c-2.14,0-3.75,0.56-4.82,1.68s-1.61,2.48-1.61,4.08v1.07H248.68z"/>
</g>
<g>
	<rect x="31.36" y="-10.19" class="st0" width="172.2" height="8.14"/>
</g>
<g>
</g>
<g>
</g>
<g>
</g>
<g>
</g>
<g>
</g>
<g>
</g>
<g>
</g>
<g>
</g>
<g>
</g>
<g>
</g>
<g>
</g>
</svg>
