<?xml version="1.0" encoding="utf-8"?>
<!-- Generator: Adobe Illustrator 24.1.3, SVG Export Plug-In . SVG Version: 6.00 Build 0)  -->
<svg version="1.1" id="레이어_1" xmlns="http://www.w3.org/2000/svg" xmlns:xlink="http://www.w3.org/1999/xlink" x="0px"
	 y="0px" viewBox="0 0 281 39" style="enable-background:new 0 0 281 39;" xml:space="preserve">
<style type="text/css">
	.st0{fill:#FFFFFF;}
</style>
<g>
	<path class="st0" d="M29.32,3.55v4.46c0,0.98-0.05,2.06-0.16,3.22c-0.11,1.16-0.25,2.2-0.41,3.11h5.08v3.78H3.14v-3.78H24.2
		c0.22-0.91,0.37-1.91,0.47-2.99c0.1-1.08,0.14-2.15,0.14-3.2V7.33H7.14V3.55H29.32z M29.53,20.93v9.43H11.75v2.45H30.5v3.56H7.36
		v-9.47h17.78V24.5H7.18v-3.56H29.53z"/>
	<path class="st0" d="M51.71,23.53v4.54h13.07v3.82H34.1v-3.82h13.07v-4.54h-8.96V12.37h17.75V8.8H38.1V4.99h22.39v11.16H42.74v3.56
		h18.5v3.82H51.71z"/>
	<path class="st0" d="M65.93,17.44c1.54-0.46,2.89-0.88,4.05-1.26c1.16-0.38,2.16-0.73,2.99-1.04c0.83-0.31,1.51-0.61,2.05-0.88
		s0.98-0.56,1.31-0.85l-10.19,0.36l-0.11-3.71l11.38-0.22V7.61H67.04V3.87h14.8v5.9h6.48V2.61h4.54v16.92h-4.54v-6.01h-7.16
		c-0.34,0.79-0.83,1.5-1.49,2.12c-0.66,0.62-1.54,1.22-2.65,1.8c-1.1,0.58-2.45,1.15-4.03,1.73c-1.58,0.58-3.48,1.2-5.69,1.87
		L65.93,17.44z M92.85,21.04v9.36h-16.6v2.41h17.6v3.6h-22v-9.43h16.6v-2.38H71.69v-3.56H92.85z"/>
	<path class="st0" d="M126.69,28.03v3.85H96.02v-3.85H126.69z M99.95,21.83V5.38h22.39v3.85h-17.86v8.75h18.29v3.85H99.95z"/>
	<path class="st0" d="M133.39,17.37c2.54,0,4.93-0.03,7.16-0.09c2.23-0.06,4.49-0.2,6.77-0.41l0.4,3.71
		c-1.08,0.12-2.23,0.22-3.46,0.29c-1.22,0.07-2.59,0.13-4.1,0.16c-1.51,0.04-3.19,0.06-5.02,0.07c-1.84,0.01-3.91,0.02-6.21,0.02
		v-10.3h10.87V7.87h-10.87V4.12h15.34v10.3h-10.87V17.37z M133.53,23.85h21.28v12.28h-21.28V23.85z M138.03,32.38h12.28v-4.79
		h-12.28V32.38z M154.81,22.34h-4.54V2.61h4.54V22.34z"/>
	<path class="st0" d="M167.48,28.21c-1.51,0-2.81-0.24-3.89-0.72c-1.08-0.48-1.97-1.15-2.68-2.02c-0.71-0.86-1.22-1.88-1.55-3.06
		c-0.32-1.18-0.49-2.47-0.49-3.89v-4c0-1.39,0.16-2.68,0.49-3.87c0.32-1.19,0.84-2.21,1.55-3.08c0.71-0.86,1.6-1.54,2.68-2.02
		c1.08-0.48,2.38-0.72,3.89-0.72c1.51,0,2.81,0.24,3.89,0.72c1.08,0.48,1.97,1.15,2.68,2.02c0.71,0.86,1.22,1.89,1.55,3.08
		s0.49,2.48,0.49,3.87v4c0,1.42-0.16,2.71-0.49,3.89c-0.32,1.18-0.84,2.2-1.55,3.06c-0.71,0.86-1.6,1.54-2.68,2.02
		C170.29,27.97,168.99,28.21,167.48,28.21z M167.48,8.84c-1.51,0-2.6,0.53-3.26,1.58s-0.99,2.6-0.99,4.64v2.92
		c0,2.04,0.33,3.59,0.99,4.64s1.75,1.58,3.26,1.58c1.51,0,2.6-0.53,3.26-1.58c0.66-1.06,0.99-2.6,0.99-4.64v-2.92
		c0-2.04-0.33-3.59-0.99-4.64C170.08,9.37,168.99,8.84,167.48,8.84z M184.51,14.49h4.61v3.96h-4.61v17.64h-4.57V2.61h4.57V14.49z"/>
	<path class="st0" d="M189.8,26.01c1.68-0.91,3.15-1.75,4.41-2.5s2.33-1.46,3.22-2.12c0.89-0.66,1.6-1.29,2.14-1.89
		c0.54-0.6,0.95-1.2,1.24-1.8l-10.98,0.29l-0.14-3.89l11.59-0.18v-4.5h-10.84V5.53h15.3v8.28c0,1.73-0.19,3.23-0.56,4.52
		c-0.37,1.28-1.06,2.51-2.07,3.67c-1.01,1.16-2.41,2.35-4.19,3.56c-1.79,1.21-4.1,2.6-6.93,4.16L189.8,26.01z M215.47,14.63h4.61
		v3.96h-4.61v17.5h-4.57V2.61h4.57V14.63z"/>
	<path class="st0" d="M233.9,5.78V9.7h-8.42v13.57h1.3c1.46,0,2.94-0.04,4.43-0.11c1.49-0.07,2.99-0.23,4.5-0.47l0.47,3.89
		c-1.46,0.26-3.02,0.43-4.66,0.5c-1.64,0.07-3.22,0.11-4.73,0.11h-5.8V5.78H233.9z M237.89,17.98h-6.16v-3.92h6.16V3.29h4.32v31.18
		h-4.32V17.98z M249.05,36.09h-4.32V2.61h4.32V36.09z"/>
	<path class="st0" d="M269.29,5.53v21.85h-16.24V5.53H269.29z M264.75,9.38h-7.16v14.15h7.16V9.38z M279.01,36.09h-4.57V2.61h4.57
		V36.09z"/>
</g>
<g>
</g>
<g>
</g>
<g>
</g>
<g>
</g>
<g>
</g>
<g>
</g>
<g>
</g>
<g>
</g>
<g>
</g>
<g>
</g>
<g>
</g>
</svg>
