<?xml version="1.0" encoding="utf-8"?>
<!-- Generator: Adobe Illustrator 24.1.3, SVG Export Plug-In . SVG Version: 6.00 Build 0)  -->
<svg version="1.1" id="레이어_1" xmlns="http://www.w3.org/2000/svg" xmlns:xlink="http://www.w3.org/1999/xlink" x="0px"
	 y="0px" viewBox="0 0 256 70" style="enable-background:new 0 0 256 70;" xml:space="preserve">
<style type="text/css">
	.st0{fill:#FFFFFF;}
</style>
<g>
	<path class="st0" d="M14.41,30.93c5.47,0,9.5,1.35,12.09,4.05c2.58,2.7,3.88,6.6,3.88,11.7v5.25c0,2.55-0.29,4.8-0.87,6.76
		s-1.5,3.6-2.78,4.92c-1.27,1.33-2.92,2.34-4.92,3.03c-2.01,0.7-4.44,1.05-7.29,1.05H1.61V30.93H14.41z M8.08,62.19h5.46
		c1.63,0,3.09-0.19,4.36-0.56c1.28-0.37,2.35-0.97,3.21-1.78c0.87-0.82,1.53-1.9,1.99-3.24c0.46-1.34,0.69-2.98,0.69-4.92v-4.74
		c0-3.88-0.86-6.6-2.58-8.16c-1.72-1.56-4.28-2.35-7.68-2.35H8.08V62.19z"/>
	<path class="st0" d="M49.9,45.36c-0.48-0.2-0.99-0.36-1.53-0.46c-0.54-0.1-1.22-0.15-2.04-0.15c-0.88,0-1.71,0.15-2.47,0.46
		c-0.76,0.31-1.43,0.74-1.99,1.3c-0.56,0.56-1,1.22-1.33,1.99c-0.32,0.76-0.48,1.61-0.48,2.52V67.7h-6.43V39.6h6.17v4.08h0.1
		c0.75-1.43,1.74-2.57,2.98-3.42c1.24-0.85,2.86-1.28,4.87-1.28c0.71,0,1.43,0.05,2.14,0.15c0.71,0.1,1.33,0.24,1.84,0.41
		L49.9,45.36z"/>
	<path class="st0" d="M75.45,65.1c-1.36,0.92-2.96,1.65-4.79,2.19c-1.84,0.54-4.08,0.82-6.73,0.82c-1.63,0-3.21-0.21-4.74-0.64
		c-1.53-0.43-2.9-1.14-4.11-2.14c-1.21-1-2.18-2.35-2.91-4.03c-0.73-1.68-1.1-3.78-1.1-6.3V52.1c0-2.28,0.33-4.24,0.99-5.89
		c0.66-1.65,1.57-3.01,2.73-4.08c1.16-1.07,2.51-1.86,4.05-2.37c1.55-0.51,3.22-0.77,5.02-0.77c1.77,0,3.41,0.26,4.92,0.77
		c1.51,0.51,2.81,1.28,3.9,2.32c1.09,1.04,1.94,2.33,2.55,3.88c0.61,1.55,0.92,3.34,0.92,5.38v4.64H57.35
		c0,2.24,0.59,3.94,1.78,5.07c1.19,1.14,2.91,1.71,5.15,1.71c1.67,0,3.14-0.18,4.44-0.54c1.29-0.36,2.65-0.94,4.08-1.76L75.45,65.1z
		 M70,51.13V49.9c0-0.75-0.11-1.46-0.33-2.14c-0.22-0.68-0.59-1.27-1.1-1.78c-0.51-0.51-1.16-0.92-1.94-1.22
		c-0.78-0.31-1.73-0.46-2.86-0.46c-2.14,0-3.75,0.56-4.82,1.68c-1.07,1.12-1.61,2.48-1.61,4.08v1.07H70z"/>
	<path class="st0" d="M86.98,68.11c-3.03,0-5.37-0.69-7.04-2.07c-1.67-1.38-2.5-3.31-2.5-5.79v-1.63c0-1.16,0.18-2.22,0.54-3.19
		c0.36-0.97,0.95-1.81,1.78-2.53c0.83-0.71,1.93-1.27,3.29-1.68s3.03-0.61,5-0.61h6.43v-1.07c0-1.73-0.4-2.98-1.2-3.75
		c-0.8-0.76-2.07-1.15-3.8-1.15c-2.92,0-5.58,0.94-7.96,2.81l-3.16-4.69c1.43-0.99,3.04-1.86,4.85-2.63
		c1.8-0.77,3.91-1.15,6.32-1.15c1.63,0,3.14,0.2,4.54,0.61c1.39,0.41,2.59,0.99,3.6,1.76c1,0.77,1.78,1.7,2.35,2.81
		c0.56,1.1,0.84,2.37,0.84,3.8V67.7h-5.76l-0.1-3.47c-0.27,0.61-0.71,1.17-1.3,1.66c-0.6,0.49-1.27,0.9-2.01,1.22
		c-0.75,0.32-1.53,0.57-2.35,0.74C88.51,68.03,87.73,68.11,86.98,68.11z M94.48,55.62H88.2c-1.7,0-2.88,0.32-3.54,0.97
		c-0.66,0.65-0.99,1.51-0.99,2.6v0.61c0,0.92,0.32,1.63,0.97,2.14c0.65,0.51,1.6,0.77,2.86,0.77c2.62,0,4.56-0.63,5.81-1.89
		c0.58-0.58,0.92-1.2,1.02-1.86s0.15-1.52,0.15-2.58V55.62z"/>
	<path class="st0" d="M134.82,38.99c1.29,0,2.53,0.22,3.7,0.66c1.17,0.44,2.2,1.11,3.09,1.99c0.88,0.88,1.59,1.99,2.12,3.31
		c0.53,1.33,0.79,2.87,0.79,4.64V67.7h-6.43V50.92c0-1.26-0.13-2.29-0.41-3.11c-0.27-0.82-0.65-1.45-1.12-1.91s-1.02-0.77-1.63-0.94
		c-0.61-0.17-1.26-0.25-1.94-0.25c-0.61,0-1.23,0.09-1.86,0.28c-0.63,0.19-1.18,0.51-1.66,0.97c-0.48,0.46-0.87,1.08-1.17,1.86
		c-0.31,0.78-0.46,1.75-0.46,2.91V67.7h-6.43V50.82c0-1.19-0.14-2.17-0.41-2.96c-0.27-0.78-0.64-1.41-1.1-1.89
		c-0.46-0.48-0.99-0.81-1.61-0.99c-0.61-0.19-1.27-0.28-1.99-0.28c-1.53,0-2.77,0.48-3.72,1.43c-0.95,0.95-1.43,2.4-1.43,4.34V67.7
		h-6.43V39.6h6.07v3.57h0.1c0.68-1.29,1.67-2.31,2.98-3.06c1.31-0.75,2.88-1.12,4.72-1.12c1.73,0,3.29,0.39,4.67,1.17
		c1.38,0.78,2.32,1.82,2.83,3.11c0.99-1.43,2.15-2.5,3.49-3.21C130.93,39.35,132.68,38.99,134.82,38.99z"/>
	<path class="st0" d="M152.56,67.7l-6.99-28.1h6.88l4.13,21.78h0.2l5.1-21.78h6.07l4.84,21.78h0.2l4.49-21.78h6.43l-6.94,28.1h-7.5
		l-4.59-19.79h-0.2l-4.64,19.79H152.56z"/>
	<path class="st0" d="M193.57,68.11c-3.03,0-5.37-0.69-7.04-2.07c-1.67-1.38-2.5-3.31-2.5-5.79v-1.63c0-1.16,0.18-2.22,0.54-3.19
		c0.36-0.97,0.95-1.81,1.79-2.53c0.83-0.71,1.93-1.27,3.29-1.68c1.36-0.41,3.03-0.61,5-0.61h6.43v-1.07c0-1.73-0.4-2.98-1.2-3.75
		c-0.8-0.76-2.07-1.15-3.8-1.15c-2.92,0-5.58,0.94-7.96,2.81l-3.16-4.69c1.43-0.99,3.04-1.86,4.84-2.63
		c1.8-0.77,3.91-1.15,6.32-1.15c1.63,0,3.14,0.2,4.54,0.61c1.39,0.41,2.59,0.99,3.59,1.76c1,0.77,1.79,1.7,2.35,2.81
		c0.56,1.1,0.84,2.37,0.84,3.8V67.7h-5.76l-0.1-3.47c-0.27,0.61-0.71,1.17-1.3,1.66c-0.6,0.49-1.27,0.9-2.01,1.22
		c-0.75,0.32-1.53,0.57-2.35,0.74C195.1,68.03,194.32,68.11,193.57,68.11z M201.06,55.62h-6.27c-1.7,0-2.88,0.32-3.54,0.97
		c-0.66,0.65-0.99,1.51-0.99,2.6v0.61c0,0.92,0.32,1.63,0.97,2.14c0.65,0.51,1.6,0.77,2.86,0.77c2.62,0,4.56-0.63,5.81-1.89
		c0.58-0.58,0.92-1.2,1.02-1.86c0.1-0.66,0.15-1.52,0.15-2.58V55.62z"/>
	<path class="st0" d="M227.58,45.36c-0.48-0.2-0.99-0.36-1.53-0.46c-0.54-0.1-1.22-0.15-2.04-0.15c-0.88,0-1.71,0.15-2.47,0.46
		c-0.77,0.31-1.43,0.74-1.99,1.3c-0.56,0.56-1,1.22-1.33,1.99c-0.32,0.76-0.48,1.61-0.48,2.52V67.7h-6.43V39.6h6.17v4.08h0.1
		c0.75-1.43,1.74-2.57,2.98-3.42c1.24-0.85,2.86-1.28,4.87-1.28c0.71,0,1.43,0.05,2.14,0.15s1.33,0.24,1.84,0.41L227.58,45.36z"/>
	<path class="st0" d="M253.14,65.1c-1.36,0.92-2.96,1.65-4.79,2.19c-1.84,0.54-4.08,0.82-6.73,0.82c-1.63,0-3.21-0.21-4.74-0.64
		c-1.53-0.43-2.9-1.14-4.11-2.14c-1.21-1-2.18-2.35-2.91-4.03c-0.73-1.68-1.1-3.78-1.1-6.3V52.1c0-2.28,0.33-4.24,1-5.89
		c0.66-1.65,1.57-3.01,2.73-4.08c1.16-1.07,2.51-1.86,4.05-2.37c1.55-0.51,3.22-0.77,5.02-0.77c1.77,0,3.41,0.26,4.92,0.77
		c1.51,0.51,2.81,1.28,3.9,2.32s1.94,2.33,2.55,3.88c0.61,1.55,0.92,3.34,0.92,5.38v4.64h-18.82c0,2.24,0.59,3.94,1.79,5.07
		c1.19,1.14,2.91,1.71,5.15,1.71c1.67,0,3.14-0.18,4.44-0.54c1.29-0.36,2.65-0.94,4.08-1.76L253.14,65.1z M247.68,51.13V49.9
		c0-0.75-0.11-1.46-0.33-2.14c-0.22-0.68-0.59-1.27-1.1-1.78c-0.51-0.51-1.16-0.92-1.94-1.22c-0.78-0.31-1.73-0.46-2.86-0.46
		c-2.14,0-3.75,0.56-4.82,1.68s-1.61,2.48-1.61,4.08v1.07H247.68z"/>
</g>
<g>
	<path class="st0" d="M18.84,3.62v2.96c0,0.65-0.04,1.37-0.11,2.14c-0.07,0.77-0.16,1.46-0.27,2.07h3.37v2.51H1.46v-2.51h13.98
		c0.14-0.61,0.25-1.27,0.31-1.98c0.06-0.72,0.1-1.43,0.1-2.13V6.13H4.11V3.62H18.84z M18.98,15.17v6.26H7.17v1.63h12.45v2.37H4.26
		v-6.29h11.81v-1.6H4.14v-2.37H18.98z"/>
	<path class="st0" d="M33.7,16.89v3.01h8.68v2.53H22.01V19.9h8.68v-3.01h-5.95V9.48h11.78V7.11H24.67V4.58h14.87v7.41H27.75v2.37
		h12.29v2.53H33.7z"/>
	<path class="st0" d="M43.14,12.85c1.02-0.3,1.92-0.58,2.69-0.84c0.77-0.25,1.43-0.49,1.98-0.69c0.55-0.21,1-0.4,1.36-0.59
		s0.65-0.37,0.87-0.56l-6.76,0.24l-0.07-2.46l7.55-0.14V6.32h-6.88V3.84h9.82v3.92h4.3V3h3.01v11.23h-3.01v-3.99h-4.76
		c-0.22,0.53-0.55,1-0.99,1.41c-0.44,0.41-1.02,0.81-1.76,1.2c-0.73,0.38-1.63,0.76-2.68,1.15c-1.05,0.38-2.31,0.8-3.78,1.24
		L43.14,12.85z M61.02,15.24v6.21H50v1.6h11.69v2.39h-14.6v-6.26h11.02V17.6H46.97v-2.37H61.02z"/>
	<path class="st0" d="M83.49,19.88v2.56H63.13v-2.56H83.49z M65.73,15.76V4.84H80.6V7.4H68.74v5.81h12.14v2.56H65.73z"/>
	<path class="st0" d="M87.94,12.8c1.69,0,3.27-0.02,4.76-0.06c1.48-0.04,2.98-0.13,4.49-0.27l0.26,2.46
		c-0.72,0.08-1.48,0.14-2.29,0.19c-0.81,0.05-1.72,0.08-2.72,0.11c-1,0.02-2.12,0.04-3.33,0.05c-1.22,0.01-2.59,0.01-4.12,0.01V8.45
		h7.22V6.49h-7.22V4h10.18v6.84h-7.22V12.8z M88.03,17.1h14.13v8.15H88.03V17.1z M91.02,22.77h8.15v-3.18h-8.15V22.77z M102.16,16.1
		h-3.01V3h3.01V16.1z"/>
	<path class="st0" d="M110.57,19.99c-1,0-1.86-0.16-2.58-0.48c-0.72-0.32-1.31-0.76-1.78-1.34c-0.47-0.57-0.81-1.25-1.03-2.03
		c-0.22-0.78-0.32-1.64-0.32-2.58v-2.65c0-0.92,0.11-1.78,0.32-2.57c0.21-0.79,0.56-1.47,1.03-2.04c0.47-0.57,1.06-1.02,1.78-1.34
		c0.72-0.32,1.58-0.48,2.58-0.48c1,0,1.86,0.16,2.58,0.48c0.72,0.32,1.31,0.77,1.78,1.34c0.47,0.57,0.81,1.25,1.03,2.04
		c0.22,0.79,0.32,1.65,0.32,2.57v2.65c0,0.94-0.11,1.8-0.32,2.58c-0.22,0.78-0.56,1.46-1.03,2.03c-0.47,0.57-1.06,1.02-1.78,1.34
		C112.44,19.84,111.58,19.99,110.57,19.99z M110.57,7.14c-1,0-1.72,0.35-2.16,1.05s-0.66,1.73-0.66,3.08v1.94
		c0,1.35,0.22,2.38,0.66,3.08c0.44,0.7,1.16,1.05,2.16,1.05c1,0,1.72-0.35,2.16-1.05c0.44-0.7,0.66-1.73,0.66-3.08v-1.94
		c0-1.35-0.22-2.38-0.66-3.08C112.3,7.49,111.58,7.14,110.57,7.14z M121.88,10.89h3.06v2.63h-3.06v11.71h-3.04V3h3.04V10.89z"/>
	<path class="st0" d="M125.39,18.54c1.12-0.61,2.09-1.16,2.93-1.66c0.84-0.5,1.55-0.97,2.14-1.41c0.59-0.44,1.06-0.86,1.42-1.25
		c0.36-0.4,0.63-0.8,0.82-1.19l-7.29,0.19l-0.1-2.58l7.7-0.12V7.52h-7.19V4.94h10.16v5.5c0,1.15-0.12,2.15-0.37,3
		c-0.25,0.85-0.7,1.67-1.37,2.44c-0.67,0.77-1.6,1.56-2.78,2.37c-1.19,0.8-2.72,1.73-4.6,2.76L125.39,18.54z M142.43,10.98h3.06
		v2.63h-3.06v11.62h-3.04V3h3.04V10.98z"/>
	<path class="st0" d="M154.67,5.1v2.61h-5.59v9.01h0.86c0.97,0,1.95-0.02,2.94-0.07c0.99-0.05,1.98-0.15,2.99-0.31l0.31,2.58
		c-0.97,0.18-2,0.29-3.1,0.33c-1.09,0.05-2.14,0.07-3.14,0.07h-3.85V5.1H154.67z M157.32,13.21h-4.09V10.6h4.09V3.45h2.87v20.7
		h-2.87V13.21z M164.73,25.23h-2.87V3h2.87V25.23z"/>
	<path class="st0" d="M178.17,4.94v14.51h-10.78V4.94H178.17z M175.15,7.49h-4.76v9.39h4.76V7.49z M184.62,25.23h-3.04V3h3.04V25.23
		z"/>
</g>
<g>
</g>
<g>
</g>
<g>
</g>
<g>
</g>
<g>
</g>
<g>
</g>
<g>
</g>
<g>
</g>
<g>
</g>
<g>
</g>
<g>
</g>
</svg>
